<!-- Generated by IcoMoon.io -->
<svg version="1.1" xmlns="http://www.w3.org/2000/svg" width="32" height="32" viewBox="0 0 32 32">
<title>compass</title>
<path d="M16.5 29v0c-6.904 0-12.5-5.596-12.5-12.5s5.596-12.5 12.5-12.5c6.904 0 12.5 5.596 12.5 12.5s-5.596 12.5-12.5 12.5zM16.5 28c6.351 0 11.5-5.149 11.5-11.5s-5.149-11.5-11.5-11.5c-6.351 0-11.5 5.149-11.5 11.5s5.149 11.5 11.5 11.5v0zM16.5 27c5.799 0 10.5-4.701 10.5-10.5s-4.701-10.5-10.5-10.5c-5.799 0-10.5 4.701-10.5 10.5s4.701 10.5 10.5 10.5v0zM18.268 18.268c-1.768 1.768-8.485 4.95-8.485 4.95s3.182-6.718 4.95-8.485c1.768-1.768 8.485-4.95 8.485-4.95s-3.182 6.717-4.95 8.485v0zM16.5 7v0c0.268 0 0.5 0.22 0.5 0.49v3.019c0 0.275-0.224 0.49-0.5 0.49-0.268 0-0.5-0.22-0.5-0.49v-3.019c0-0.275 0.224-0.49 0.5-0.49zM26.043 16.543v0c0 0.268-0.22 0.5-0.49 0.5h-3.019c-0.275 0-0.49-0.224-0.49-0.5 0-0.268 0.22-0.5 0.49-0.5h3.019c0.275 0 0.49 0.224 0.49 0.5zM16.5 26.087v0c-0.268 0-0.5-0.22-0.5-0.49v-3.019c0-0.275 0.224-0.49 0.5-0.49 0.268 0 0.5 0.22 0.5 0.49v3.019c0 0.275-0.224 0.49-0.5 0.49zM6.957 16.543v0c0-0.268 0.22-0.5 0.49-0.5h3.019c0.275 0 0.49 0.224 0.49 0.5 0 0.268-0.22 0.5-0.49 0.5h-3.019c-0.275 0-0.49-0.224-0.49-0.5zM15.425 15.5c-1.061 1.061-3.465 5.586-3.465 5.586s4.526-2.404 5.586-3.465l-2.121-2.121z"></path>
</svg>
